<?xml version="1.0" standalone="no"?>
<svg xmlns:xlink="http://www.w3.org/1999/xlink" id="wave" style="transform:rotate(0deg); transition: 0.3s" viewBox="0 0 1440 160" version="1.1" xmlns="http://www.w3.org/2000/svg"><defs><linearGradient id="sw-gradient-0" x1="0" x2="0" y1="1" y2="0"><stop stop-color="rgba(255, 250.15, 248.593, 1)" offset="0%"/><stop stop-color="rgba(253.036, 253.036, 253.036, 1)" offset="100%"/></linearGradient></defs><path style="transform:translate(0, 0px); opacity:1" fill="url(#sw-gradient-0)" d="M0,32L60,50.7C120,69,240,107,360,112C480,117,600,91,720,69.3C840,48,960,32,1080,42.7C1200,53,1320,91,1440,88C1560,85,1680,43,1800,21.3C1920,0,2040,0,2160,0C2280,0,2400,0,2520,10.7C2640,21,2760,43,2880,58.7C3000,75,3120,85,3240,96C3360,107,3480,117,3600,112C3720,107,3840,85,3960,69.3C4080,53,4200,43,4320,53.3C4440,64,4560,96,4680,106.7C4800,117,4920,107,5040,93.3C5160,80,5280,64,5400,61.3C5520,59,5640,69,5760,80C5880,91,6000,101,6120,101.3C6240,101,6360,91,6480,82.7C6600,75,6720,69,6840,80C6960,91,7080,117,7200,114.7C7320,112,7440,80,7560,61.3C7680,43,7800,37,7920,50.7C8040,64,8160,96,8280,114.7C8400,133,8520,139,8580,141.3L8640,144L8640,160L8580,160C8520,160,8400,160,8280,160C8160,160,8040,160,7920,160C7800,160,7680,160,7560,160C7440,160,7320,160,7200,160C7080,160,6960,160,6840,160C6720,160,6600,160,6480,160C6360,160,6240,160,6120,160C6000,160,5880,160,5760,160C5640,160,5520,160,5400,160C5280,160,5160,160,5040,160C4920,160,4800,160,4680,160C4560,160,4440,160,4320,160C4200,160,4080,160,3960,160C3840,160,3720,160,3600,160C3480,160,3360,160,3240,160C3120,160,3000,160,2880,160C2760,160,2640,160,2520,160C2400,160,2280,160,2160,160C2040,160,1920,160,1800,160C1680,160,1560,160,1440,160C1320,160,1200,160,1080,160C960,160,840,160,720,160C600,160,480,160,360,160C240,160,120,160,60,160L0,160Z"/></svg>